HIERARCHY
ROOT root
{
	OFFSET 0.000000 0.000000 0.000000
	CHANNELS 6 Xposition Yposition Zposition Zrotation Yrotation Xrotation
	JOINT lhip
	{
		OFFSET 0.058581 -0.082280 -0.017664
		CHANNELS 3 Zrotation Yrotation Xrotation
		JOINT lknee
		{
			OFFSET 0.043451 -0.386469 0.008037
			CHANNELS 3 Zrotation Yrotation Xrotation
			JOINT lankle
			{
				OFFSET -0.014790 -0.426874 -0.037428
				CHANNELS 3 Zrotation Yrotation Xrotation
				JOINT ltoe
				{
					OFFSET 0.041054 -0.060286 0.122042
					CHANNELS 3 Zrotation Yrotation Xrotation
					End Site
					{
						OFFSET 0.000000 0.000000 0.000000
					}
				}
			}
		}
	}
	JOINT rhip
	{
		OFFSET -0.060310 -0.090513 -0.013543
		CHANNELS 3 Zrotation Yrotation Xrotation
		JOINT rknee
		{
			OFFSET -0.043257 -0.383688 -0.004843
			CHANNELS 3 Zrotation Yrotation Xrotation
			JOINT rankle
			{
				OFFSET 0.019056 -0.420046 -0.034562
				CHANNELS 3 Zrotation Yrotation Xrotation
				JOINT rtoe
				{
					OFFSET -0.034840 -0.062106 0.130323
					CHANNELS 3 Zrotation Yrotation Xrotation
					End Site
					{
						OFFSET 0.000000 0.000000 0.000000
					}
				}
			}
		}
	}
	JOINT lowerback
	{
		OFFSET 0.004439 0.124404 -0.038385
		CHANNELS 3 Zrotation Yrotation Xrotation
		JOINT upperback
		{
			OFFSET 0.004488 0.137956 0.026820
			CHANNELS 3 Zrotation Yrotation Xrotation
			JOINT chest
			{
				OFFSET -0.002265 0.056032 0.002855
				CHANNELS 3 Zrotation Yrotation Xrotation
				JOINT lowerneck
				{
					OFFSET -0.013390 0.211636 -0.033468
					CHANNELS 3 Zrotation Yrotation Xrotation
					JOINT upperneck
					{
						OFFSET 0.010113 0.088937 0.050410
						CHANNELS 3 Zrotation Yrotation Xrotation
						End Site
						{
							OFFSET 0.000000 0.000000 0.000000
						}
					}
				}
				JOINT lclavicle
				{
					OFFSET 0.071702 0.114000 -0.018898
					CHANNELS 3 Zrotation Yrotation Xrotation
					JOINT lshoulder
					{
						OFFSET 0.122921 0.045205 -0.019046
						CHANNELS 3 Zrotation Yrotation Xrotation
						JOINT lelbow
						{
							OFFSET 0.255332 -0.015649 -0.022946
							CHANNELS 3 Zrotation Yrotation Xrotation
							JOINT lwrist
							{
								OFFSET 0.265709 0.012698 -0.007375
								CHANNELS 3 Zrotation Yrotation Xrotation
								End Site
								{
									OFFSET 0.000000 0.000000 0.000000
								}
							}
						}
					}
				}
				JOINT rclavicle
				{
					OFFSET -0.082954 0.112472 -0.023707
					CHANNELS 3 Zrotation Yrotation Xrotation
					JOINT rshoulder
					{
						OFFSET -0.113228 0.046853 -0.008472
						CHANNELS 3 Zrotation Yrotation Xrotation
						JOINT relbow
						{
							OFFSET -0.260127 -0.014369 -0.031269
							CHANNELS 3 Zrotation Yrotation Xrotation
							JOINT rwrist
							{
								OFFSET -0.269108 0.006794 -0.006027
								CHANNELS 3 Zrotation Yrotation Xrotation
								End Site
								{
									OFFSET 0.000000 0.000000 0.000000
								}
							}
						}
					}
				}
			}
		}
	}
}
MOTION
Frames: 12
Frame Time: 0.033333
1.165296 0.164212 0.993600 -87.451308 2.488875 85.830714 -0.143042 -0.090555 8.129974 -2.942782 -16.277771 -0.910444 4.254015 6.552916 -13.111117 0.000000 -0.000000 0.000000 3.745923 -2.439317 3.000450 3.751105 1.153424 9.033631 4.050741 -3.871529 -10.880876 0.000000 -0.000000 0.000000 -2.029304 0.777888 8.672054 1.751715 -2.983391 4.278295 1.583846 -3.098582 5.374170 0.616770 7.202078 3.841312 1.370453 2.139635 7.182621 -23.498413 5.658240 1.895759 -60.869008 -9.998062 6.724470 15.270464 -34.705059 -4.815665 0.493488 -0.615827 -14.621924 23.601082 -4.614917 0.371221 61.786286 -0.393157 11.269747 -14.965485 27.399423 -5.506852 7.083535 -0.677392 -10.733717 
1.163004 0.163838 0.993159 -87.753429 2.659914 85.776926 0.134123 0.096445 8.213093 -3.164936 -16.214524 -0.602058 4.529948 6.467679 -13.513451 0.000000 -0.000000 0.000000 3.927895 -1.727387 3.600500 3.866525 0.737524 8.525995 3.787872 -4.086529 -10.800499 0.000000 -0.000000 0.000000 -2.078653 0.887734 8.455581 2.159259 -2.912303 3.888324 1.372174 -3.027841 5.242507 2.603255 1.336848 7.537896 1.968954 -2.655556 7.999844 -23.398326 5.822978 3.155019 -61.053732 -9.571948 7.774066 13.967221 -36.086275 -0.924752 -1.769161 -2.834725 -15.306362 22.801940 -4.369381 0.790772 62.442025 -0.275641 10.821523 -15.719016 27.942230 -4.779703 6.719403 -1.012673 -10.672059 
1.161065 0.164217 0.992326 -88.078575 2.967844 86.018727 0.635702 0.419323 7.615770 -3.548669 -16.025467 0.209824 4.684401 6.309431 -13.760224 0.000000 -0.000000 0.000000 4.299549 -1.839866 3.490029 3.797022 0.883625 8.592527 3.793758 -4.010311 -10.848563 0.000000 -0.000000 0.000000 -1.968507 0.983273 7.745631 2.379620 -2.895900 3.900330 1.247203 -2.753099 5.342164 3.403911 -1.117045 8.190707 2.495299 -4.985700 8.030101 -23.640423 5.840140 3.069884 -61.210129 -9.140619 8.628279 12.304997 -36.023319 2.732291 -0.205981 -0.735223 -10.163046 22.630097 -4.345405 0.333452 62.448529 -0.228401 10.255835 -15.757575 28.176654 -4.969026 6.686482 -1.039812 -10.196152 
1.158006 0.163354 0.992117 -88.285837 3.011416 85.900384 0.582315 0.608359 7.758822 -3.567716 -15.956816 0.577573 4.698955 6.439027 -14.105046 0.000000 -0.000000 0.000000 4.212133 -2.045080 4.045589 3.889831 1.360911 8.279381 3.814368 -4.047082 -10.845836 0.000000 -0.000000 0.000000 -1.934055 1.015734 7.339106 2.315401 -2.945894 3.952314 1.184607 -2.808619 5.397771 3.452318 -1.188917 6.836000 2.070381 -5.080383 7.504013 -24.063941 6.087888 2.828621 -61.240682 -8.503020 8.721275 11.390234 -35.222655 3.822492 -0.175052 -0.640207 -9.604348 22.781885 -4.361461 -0.064956 62.158081 -0.115665 10.393189 -15.620415 28.451327 -5.044389 6.396945 -1.158677 -10.176212 
1.156412 0.162951 0.991885 -88.461077 3.094607 85.951578 0.551139 0.538589 7.722628 -3.476273 -15.791300 0.768657 4.758415 6.562771 -14.309369 0.000000 -0.000000 0.000000 4.368171 -1.844069 4.114630 3.787469 1.465595 8.253594 3.804823 -4.293611 -10.930419 0.000000 -0.000000 0.000000 -1.955510 1.031247 6.987884 2.305681 -2.920651 3.852679 1.210637 -2.856342 5.586727 3.578671 -1.326196 6.383012 2.010462 -5.144208 7.276892 -24.145650 6.245004 2.785121 -61.462452 -8.168401 8.770924 10.933234 -34.464459 4.383040 -0.244314 -0.603173 -9.426891 22.854423 -4.399719 -0.152261 62.052900 0.106369 10.508652 -15.626100 28.582727 -4.940350 6.248297 -1.106199 -10.109296 
1.154151 0.162367 0.991859 -88.560251 3.141876 85.905048 0.617172 0.586506 7.931374 -3.602286 -15.790677 0.802462 4.745487 6.576839 -14.507071 0.000000 -0.000000 0.000000 4.375499 -1.827216 4.417331 3.822564 1.707279 8.125587 3.784855 -4.421698 -11.036593 0.000000 -0.000000 0.000000 -1.943940 0.977643 6.804461 2.258673 -2.958983 3.684263 1.162952 -2.978782 5.557345 3.750194 -1.519465 5.833506 1.973837 -5.222555 7.043773 -24.408742 6.352111 2.893946 -61.517218 -7.597507 8.612567 10.895115 -33.140245 4.182847 -0.288200 -0.889666 -9.726553 23.015332 -4.450384 -0.280191 61.904352 0.145976 10.676817 -15.493486 28.567414 -4.840332 5.986381 -1.156239 -10.245435 
1.152358 0.161740 0.991448 -88.823931 3.200501 85.932224 0.647123 0.817147 8.139450 -3.552998 -15.788061 0.641132 4.666211 6.629068 -14.653285 0.000000 -0.000000 0.000000 4.356509 -1.866536 4.436465 3.875885 1.978256 8.236821 3.778082 -4.413669 -11.177787 0.000000 -0.000000 0.000000 -1.800719 0.887180 6.570356 2.164231 -2.952988 3.566348 0.990054 -3.109038 5.784743 3.818071 -1.129686 4.880680 1.755923 -4.952183 6.711179 -24.636311 6.701321 2.456591 -61.451295 -7.036234 8.468941 10.245172 -31.336802 4.728927 -0.273862 -0.804992 -8.974271 23.070272 -5.031205 -1.106070 61.900664 0.424260 10.954612 -14.688128 28.364355 -4.017321 5.909655 -1.093256 -9.867351 
1.151039 0.160764 0.991469 -88.882471 3.229508 85.737370 0.578284 0.758434 8.621804 -3.472530 -15.727672 0.355443 4.846703 6.709432 -14.488482 0.000000 -0.000000 0.000000 4.304421 -1.659410 4.712819 3.985935 1.991527 8.318525 3.564529 -4.601965 -11.197240 0.000000 -0.000000 0.000000 -1.876601 0.759807 5.889528 2.152819 -3.231221 4.657375 0.952469 -2.914699 5.838010 3.906512 -0.794263 3.861729 1.595320 -4.875410 6.085663 -24.870826 6.256342 2.344747 -61.291666 -6.665206 8.276439 9.720454 -29.456716 5.216173 -2.784819 -0.662226 -8.776220 23.202960 -4.692501 -1.370431 61.978669 0.608950 10.856582 -14.959558 28.082337 -4.272103 6.772587 -1.190193 -10.006629 
1.149669 0.159926 0.991298 -88.931117 3.317596 85.727895 0.653280 0.905952 8.780630 -3.428891 -15.752784 0.291687 4.684374 6.645679 -14.785246 0.000000 -0.000000 0.000000 4.317184 -1.685739 4.865382 4.007478 2.015838 8.224294 3.527725 -4.606845 -11.191485 0.000000 -0.000000 0.000000 -1.903335 0.714390 5.772368 2.174043 -3.316741 4.670293 0.980881 -2.991930 5.850422 4.142748 -1.049799 3.426812 1.406072 -5.079069 5.876431 -25.042826 6.473255 2.225634 -61.296493 -6.324917 7.973606 9.554348 -27.468432 5.289516 -3.063004 -0.706951 -8.388540 23.159623 -4.817437 -1.517125 62.091037 0.568019 10.887963 -14.876028 27.732246 -4.094571 6.652913 -1.198656 -9.965341 
1.147938 0.159163 0.991004 -89.113486 3.408793 85.657809 0.759082 1.150439 9.159678 -3.426139 -15.991115 0.003478 4.760302 6.770075 -14.730647 0.000000 -0.000000 0.000000 4.285975 -1.878720 4.957450 4.060471 2.134281 8.435337 3.456987 -4.348697 -11.311361 0.000000 -0.000000 0.000000 -1.993032 0.727429 5.648276 2.205298 -3.322180 4.667787 1.019004 -3.059210 5.719916 4.792524 -1.795739 3.643421 2.687949 -5.556407 5.469412 -25.077916 6.438960 2.665911 -61.288379 -5.771272 7.455958 9.766890 -25.525164 4.823264 -3.018564 -0.378640 -8.309276 22.956958 -4.758990 -1.233033 62.328222 0.418924 10.575961 -14.781628 27.455983 -3.823599 6.805215 -1.317127 -9.992901 
1.147025 0.158739 0.990918 -89.014653 3.461141 85.759804 0.901118 1.313865 9.132805 -3.569625 -16.180090 -0.072616 4.787162 6.637846 -14.687554 0.000000 -0.000000 0.000000 4.344253 -1.964230 4.884198 4.034042 2.275689 8.463094 3.364658 -4.462669 -11.396883 0.000000 -0.000000 0.000000 -2.013321 0.630339 5.645158 2.178072 -3.346869 4.440456 0.978449 -3.218753 5.714187 4.902455 -1.998412 3.613266 2.839090 -5.691401 5.514571 -25.063986 6.692548 2.817694 -61.120151 -5.468906 7.114481 9.765292 -24.049807 4.828353 -3.126778 -0.550293 -8.273973 23.072473 -5.066331 -1.273436 62.298667 0.356053 10.477787 -14.495816 27.079815 -3.554910 6.510692 -0.964864 -9.700769 
1.146500 0.158396 0.990961 -88.913341 3.513304 85.810915 0.970916 1.232802 9.108612 -3.623024 -16.099828 -0.018745 4.784302 6.675722 -14.892140 0.000000 -0.000000 0.000000 4.492777 -1.930040 4.841061 3.894192 2.331488 8.510472 3.352918 -4.804683 -11.436031 0.000000 -0.000000 0.000000 -2.161768 0.554606 5.689587 2.273944 -3.477964 4.302572 1.071004 -3.288126 5.757198 5.280483 -2.572005 3.251776 2.774983 -6.203703 5.302135 -25.149871 6.882308 2.885013 -60.833298 -5.144786 6.927394 9.721283 -23.003234 4.765931 -3.251514 -0.375091 -8.347347 23.196157 -5.056402 -1.269201 62.134949 0.254488 10.602028 -14.482137 26.676960 -3.548287 6.359834 -0.934756 -9.648864 
